Coordinates
version=1
nRows=21
nColumns=22
inDegrees=yes

Units are S.I. units (second, meters, Newtons, ...)
If the header above contains a line with 'inDegrees', this indicates whether rotational values are in degrees (yes) or radians (no).

endheader
time	pelvis_tilt	pelvis_list	pelvis_rotation	pelvis_tx	pelvis_ty	pelvis_tz	hip_flexion_r	hip_adduction_r	hip_rotation_r	knee_angle_r	ankle_angle_r	subtalar_angle_r	hip_flexion_l	hip_adduction_l	hip_rotation_l	knee_angle_l	ankle_angle_l	subtalar_angle_l	lumbar_extension	lumbar_bending	lumbar_rotation
      0.01000000	      0.33840381	     -0.93291343	    -25.62320288	     -1.00186947	      0.90928717	     -0.35466745	     -3.41252636	      1.15947059	     -1.29305104	     -3.47397564	     14.41156494	      3.71009164	      2.10668914	     -4.40703366	    -13.72954392	    -16.08098668	     15.18315965	     -0.25744108	     -2.48777916	     -1.51276378	      4.90984434
      0.02000000	      0.34121020	     -0.93008306	    -25.58598394	     -1.00187472	      0.90929700	     -0.35468581	     -3.41485400	      1.15523041	     -1.28940973	     -3.48085517	     14.41608640	      3.71386162	      2.10783615	     -4.40798394	    -13.73211827	    -16.07258315	     15.18187001	     -0.25874834	     -2.48737077	     -1.50890973	      4.92080980
      0.03000000	      0.35768504	     -0.90015892	    -25.50035314	     -1.00185950	      0.90930716	     -0.35476840	     -3.39213590	      1.12074953	     -1.41737616	     -3.54245495	     14.53239887	      3.81518429	      2.09837395	     -4.36071493	    -13.61290153	    -16.02397652	     15.14351897	     -0.28440013	     -2.49088613	     -1.54490362	      4.90229064
      0.04000000	      0.35524114	     -0.87680879	    -25.41510688	     -1.00187014	      0.90930047	     -0.35486294	     -3.36679880	      1.10142003	     -1.50529365	     -3.57409851	     14.56863701	      3.90018837	      2.11891612	     -4.33632356	    -13.53655609	    -16.00096650	     15.12489682	     -0.30204332	     -2.48245608	     -1.55982576	      4.89190950
      0.05000000	      0.35473155	     -0.85752281	    -25.32712513	     -1.00187698	      0.90929565	     -0.35495054	     -3.34226138	      1.08592679	     -1.58131100	     -3.61522563	     14.61782229	      3.96904034	      2.13570455	     -4.31716224	    -13.46397495	    -15.97988197	     15.11096390	     -0.31113335	     -2.47335207	     -1.57208218	      4.88003080
      0.06000000	      0.35466518	     -0.83804339	    -25.23308559	     -1.00189564	      0.90929160	     -0.35506582	     -3.31764169	      1.07000255	     -1.66129735	     -3.65387967	     14.66147508	      4.02508735	      2.15332995	     -4.29580484	    -13.38738686	    -15.95529842	     15.09567167	     -0.31542533	     -2.47132459	     -1.58151274	      4.86418754
      0.07000000	      0.35990886	     -0.82623877	    -25.14541627	     -1.00192712	      0.90929682	     -0.35518132	     -3.30442385	      1.05951391	     -1.71973198	     -3.68509418	     14.69750033	      4.05352860	      2.16752680	     -4.28113235	    -13.32025845	    -15.94299179	     15.08597233	     -0.31540391	     -2.48038771	     -1.58536696	      4.87764948
      0.08000000	      0.36467795	     -0.80787568	    -25.03946794	     -1.00194174	      0.90929810	     -0.35533651	     -3.27871192	      1.04167288	     -1.81230323	     -3.73678346	     14.74707755	      4.09049222	      2.17879346	     -4.25578209	    -13.23515093	    -15.90929005	     15.07295304	     -0.31503370	     -2.48768715	     -1.59116051	      4.82264150
      0.09000000	      0.36688725	     -0.79392839	    -24.93628917	     -1.00195622	      0.90929550	     -0.35549474	     -3.26137010	      1.02959241	     -1.89950190	     -3.77018260	     14.78353143	      4.13092944	      2.20043354	     -4.23788003	    -13.15325787	    -15.89710863	     15.06072178	     -0.31804786	     -2.49352670	     -1.59303597	      4.80258156
      0.10000000	      0.37519117	     -0.78512339	    -24.85037352	     -1.00200047	      0.90930287	     -0.35565311	     -3.24584868	      1.01832168	     -1.95521673	     -3.80987406	     14.80811863	      4.14845152	      2.21765946	     -4.22290425	    -13.08951077	    -15.89479940	     15.05702274	     -0.31904940	     -2.51523768	     -1.58982279	      4.80392848
      0.11000000	      0.37927432	     -0.77379610	    -24.75209348	     -1.00200034	      0.90930267	     -0.35581655	     -3.22468282	      1.00695198	     -2.04487700	     -3.85779507	     14.84595062	      4.16194210	      2.23282401	     -4.20494392	    -13.01200544	    -15.87914390	     15.05165323	     -0.32170616	     -2.52271897	     -1.58710181	      4.77013450
      0.12000000	      0.38443537	     -0.76503765	    -24.67473567	     -1.00202690	      0.90930514	     -0.35596616	     -3.21123736	      0.99635622	     -2.09010440	     -3.88859053	     14.86227856	      4.16662662	      2.25472988	     -4.19217503	    -12.95960063	    -15.88625630	     15.04799981	     -0.32556899	     -2.53579762	     -1.58402896	      4.77544689
      0.13000000	      0.38654525	     -0.76005460	    -24.62510536	     -1.00203615	      0.90931063	     -0.35607628	     -3.20812991	      0.98985573	     -2.08637766	     -3.89661197	     14.86351872	      4.16676960	      2.26156516	     -4.18567492	    -12.96534196	    -15.87449549	     15.04850147	     -0.32603511	     -2.54229003	     -1.56952586	      4.78542844
      0.14000000	      0.38045249	     -0.74430242	    -24.52003062	     -1.00205888	      0.90929549	     -0.35628247	     -3.15821317	      0.97917420	     -2.23073500	     -3.96940368	     14.91474682	      4.15644568	      2.30099346	     -4.16121723	    -12.83117749	    -15.87164030	     15.04433911	     -0.34098535	     -2.54840023	     -1.56866326	      4.73887105
      0.15000000	      0.38198227	     -0.73499887	    -24.46593732	     -1.00207780	      0.90929412	     -0.35639724	     -3.14830477	      0.96963014	     -2.24898289	     -3.98537110	     14.91963224	      4.15406188	      2.32744846	     -4.15095873	    -12.79517683	    -15.89117184	     15.04162994	     -0.35015578	     -2.55510680	     -1.56691948	      4.76133066
      0.16000000	      0.37658748	     -0.72463854	    -24.40949206	     -1.00210169	      0.90928540	     -0.35652264	     -3.12227594	      0.96255623	     -2.29411796	     -4.01601007	     14.93060552	      4.14693882	      2.35589248	     -4.13825697	    -12.73556886	    -15.89716586	     15.03909764	     -0.36591997	     -2.55883566	     -1.56296687	      4.77152946
      0.17000000	      0.37618947	     -0.72019894	    -24.37787698	     -1.00212237	      0.90929066	     -0.35660105	     -3.11836797	      0.95881926	     -2.29175419	     -4.01839591	     14.93139770	      4.14673639	      2.36417608	     -4.13337646	    -12.73916169	    -15.88829410	     15.03926127	     -0.36708675	     -2.56772599	     -1.55394053	      4.77987077
      0.18000000	      0.37502874	     -0.71113603	    -24.33486979	     -1.00217342	      0.90928778	     -0.35669392	     -3.10305004	      0.95237419	     -2.32215236	     -4.03394024	     14.93756261	      4.14147944	      2.39157476	     -4.12300866	    -12.68426124	    -15.90436610	     15.03318731	     -0.37938397	     -2.58204419	     -1.56071845	      4.81480465
      0.19000000	      0.36470929	     -0.69711663	    -24.28965819	     -1.00221384	      0.90927267	     -0.35681076	     -3.07374903	      0.94339957	     -2.36977122	     -4.05456622	     14.94990927	      4.13245853	      2.42547539	     -4.10619726	    -12.61220309	    -15.90818596	     15.02142811	     -0.40645195	     -2.58477449	     -1.56078153	      4.82160161
      0.20000000	      0.36204231	     -0.69308085	    -24.26839117	     -1.00224477	      0.90927239	     -0.35686223	     -3.06893941	      0.94195540	     -2.36848461	     -4.05363102	     14.95048855	      4.13226054	      2.43431569	     -4.10378828	    -12.61478259	    -15.90009573	     15.02131795	     -0.40799851	     -2.59709501	     -1.55662236	      4.82802464
      0.21000000	      0.34574639	     -0.67873460	    -24.22492814	     -1.00229562	      0.90924707	     -0.35695957	     -3.03783282	      0.93680862	     -2.41220308	     -4.06625810	     14.95724520	      4.11813433	      2.47923148	     -4.09156085	    -12.53441610	    -15.91426213	     15.00384922	     -0.45990235	     -2.59604242	     -1.56289691	      4.83225547
